<svg width="200" height="200" viewBox="0 0 200 200" fill="none" xmlns="http://www.w3.org/2000/svg">
  <path d="M100 50C100 77.6142 77.6142 100 50 100C77.6142 100 100 122.386 100 150C100 122.386 122.386 100 150 100C122.386 100 100 77.6142 100 50Z" fill="#FF90E8"/>
  <path d="M60 80C60 93.2548 48.2548 105 35 105C48.2548 105 60 116.745 60 130C60 116.745 71.7452 105 85 105C71.7452 105 60 93.2548 60 80Z" fill="#FFC900"/>
  <path d="M150 20C150 33.2548 138.255 45 125 45C138.255 45 150 56.7452 150 70C150 56.7452 161.745 45 175 45C161.745 45 150 33.2548 150 20Z" fill="#00D5FF"/>
</svg> 