<svg width="200" height="200" viewBox="0 0 200 200" fill="none" xmlns="http://www.w3.org/2000/svg">
  <path d="M100 50C100 77.6142 77.6142 100 50 100C77.6142 100 100 122.386 100 150C100 122.386 122.386 100 150 100C122.386 100 100 77.6142 100 50Z" fill="#00D5FF"/>
  <path d="M140 100C140 113.255 128.255 125 115 125C128.255 125 140 136.745 140 150C140 136.745 151.745 125 165 125C151.745 125 140 113.255 140 100Z" fill="#FF90E8"/>
  <path d="M40 30C40 43.2548 28.2548 55 15 55C28.2548 55 40 66.7452 40 80C40 66.7452 51.7452 55 65 55C51.7452 55 40 43.2548 40 30Z" fill="#FFC900"/>
</svg> 